<svg aria-hidden="true" style="position:absolute;width:0;height:0;overflow:hidden" xmlns="http://www.w3.org/2000/svg">
  <defs>
    <symbol id="cross" viewBox="0 0 32 32">
      <path fill="#fff" style="fill:var(--color1, #fff)" d="M23.778 9.636 9.636 23.778l-1.414-1.414L22.364 8.222l1.414 1.414z"/>
      <path fill="#fff" style="fill:var(--color1, #fff)" d="m9.636 8.222 14.142 14.142-1.414 1.414L8.222 9.636l1.414-1.414z"/>
    </symbol>
    <symbol id="discord" viewBox="0 0 32 32">
      <path fill="#5a65f2" style="fill:var(--color2, #5a65f2)" d="M25.256 7.848a22.734 22.734 0 0 0-5.501-1.624c-.237.403-.514.944-.705 1.375a21.472 21.472 0 0 0-6.097 0 14.418 14.418 0 0 0-.713-1.375 22.65 22.65 0 0 0-5.506 1.628c-3.482 4.943-4.426 9.763-3.954 14.515a22.557 22.557 0 0 0 6.747 3.248 15.576 15.576 0 0 0 1.445-2.236 14.622 14.622 0 0 1-2.276-1.041c.191-.133.378-.272.558-.415 4.388 1.928 9.155 1.928 13.491 0 .182.143.369.282.558.415-.722.409-1.485.759-2.28 1.043.417.785.9 1.534 1.445 2.236a22.529 22.529 0 0 0 6.752-3.25c.554-5.509-.946-10.285-3.964-14.519zM11.57 19.445c-1.317 0-2.397-1.155-2.397-2.562s1.057-2.564 2.397-2.564 2.42 1.155 2.397 2.564c.002 1.407-1.057 2.562-2.397 2.562zm8.86 0c-1.317 0-2.397-1.155-2.397-2.562s1.057-2.564 2.397-2.564c1.34 0 2.42 1.155 2.397 2.564 0 1.407-1.057 2.562-2.397 2.562z"/>
    </symbol>
    <symbol id="discord-logo" viewBox="0 0 32 32">
      <path fill="#fff" style="fill:var(--color1, #fff)" d="M25.256 7.848a22.734 22.734 0 0 0-5.501-1.624c-.237.403-.514.944-.705 1.375a21.472 21.472 0 0 0-6.097 0 14.418 14.418 0 0 0-.713-1.375 22.65 22.65 0 0 0-5.506 1.628c-3.482 4.943-4.426 9.763-3.954 14.515a22.557 22.557 0 0 0 6.747 3.248 15.576 15.576 0 0 0 1.445-2.236 14.622 14.622 0 0 1-2.276-1.041c.191-.133.378-.272.558-.415 4.388 1.928 9.155 1.928 13.491 0 .182.143.369.282.558.415-.722.409-1.485.759-2.28 1.043.417.785.9 1.534 1.445 2.236a22.529 22.529 0 0 0 6.752-3.25c.554-5.509-.946-10.285-3.964-14.519zM11.57 19.445c-1.317 0-2.397-1.155-2.397-2.562s1.057-2.564 2.397-2.564 2.42 1.155 2.397 2.564c.002 1.407-1.057 2.562-2.397 2.562zm8.86 0c-1.317 0-2.397-1.155-2.397-2.562s1.057-2.564 2.397-2.564c1.34 0 2.42 1.155 2.397 2.564 0 1.407-1.057 2.562-2.397 2.562z"/>
    </symbol>
    <symbol id="twitter-logo" viewBox="0 0 32 32">
      <path fill="#fff" style="fill:var(--color1, #fff)" d="M19.044 13.543 30.957 0h-2.823L17.79 11.759 9.528 0H-.001l12.493 17.782L-.001 31.984h2.823l10.923-12.418 8.725 12.418h9.529L19.043 13.543zm-3.866 4.395L3.841 2.078h4.336l19.959 27.921H23.8l-8.622-12.061z"/>
    </symbol>
    <symbol id="logo" viewBox="0 0 46 32">
      <path fill="#fff" style="fill:var(--color1, #fff)" d="M.336 23.381h3.022c1.787 0 2.903.828 2.892 2.096-.005.546 0 1.227-.678 1.85.469 0 1.008.664 1.008 1.98 0 1.674-.939 2.57-2.414 2.57H.336V23.38zm1.854 1.821v1.543h1.463c.541 0 .671-.476.671-.724v-.059c0-.484-.182-.736-.671-.736l-1.463-.023zm0 3.148v1.825h1.716c.41 0 .565-.437.565-.823v-.127c0-.583-.266-.864-.756-.864L2.19 28.35zM8.713 28.101l-2.805-4.72h2.439l1.354 2.769 1.488-2.769h2.22l-2.72 4.72v3.776H8.713v-3.776zM27.809 26.127c0 1.716-1.313 3.096-4.176 3.096v2.652h-2.001v-8.481h3.039c2.348 0 3.138 1.018 3.138 2.733zm-4.176 1.512h.698c.901 0 1.607-.524 1.607-1.512s-.574-1.257-1.607-1.257h-.698v2.768zM.336 22.237v-11.12h2.83l3.244 5.949 3.421-5.949h2.83v11.12h-2.83v-5.08l-3.421 5.08-3.244-5.08v5.08H.336zM16.144 11.117h3.852l2.81 11.12h-2.501l-.658-2.068h-3.243l-.609 2.068h-2.55l2.899-11.12zm1.926 2.935-1.274 4.072h2.455l-1.18-4.072zM32.718 11.118h7.935v2.513h-5.408v1.75h5.408v2.45h-5.408v2.084h5.408v2.322h-7.935V11.118zM28.25 23.394h6.052v1.917h-4.125v1.335h4.125v1.869h-4.125v1.59h4.125v1.771H28.25v-8.481zM16.107 23.394h2.938l2.144 8.481h-1.907l-.502-1.577h-2.474l-.464 1.577h-1.946l2.212-8.481zm1.469 2.238-.972 3.105h1.873l-.901-3.105zM26.957 22.253l-3.602-.01v-11.12l3.602-.035c3.375 0 5.177 1.633 5.177 5.666 0 3.094-1.73 5.498-5.177 5.498zm-1.122-2.405h1.122c1.575 0 2.536-1.002 2.536-3.094s-.75-3.067-2.536-3.067h-1.122v6.161zM35.023 25.752c0-1.323.948-2.284 2.483-2.415 1.28-.11 2.447.354 3.332.941l-.809 1.797s-.905-.524-1.437-.692c-.417-.132-.972-.008-1.086.275s-.093.572.276.757l.098.049c.204.1.511.253.859.464h.006s.748.402 1.333 1.049c.047.049.095.1.14.151h-.01c.313.386.552.846.552 1.351 0 1.322-1.093 2.375-2.627 2.506-1.28.11-2.451-.474-3.336-1.061l.625-1.8s1.237.555 1.769.724c.417.132.972.008 1.086-.275s.128-.484-.276-.757c-.126-.085-.277-.173-.448-.273a15.754 15.754 0 0 1-.413-.246c-.16-.084-2.118-1.139-2.118-2.547h.002zM44.023 12.943v-1.854h.445l.555.992.53-.992h.527v1.854h-.445v-.915l-.612.915-.527-.915v.915h-.472zM42.17 11.479v-.39h1.685v.39h-.614v1.464h-.451v-1.464h-.62zM9.571.854 8.615.696a.054.054 0 0 1-.014-.103c2.221-.944 4.564-.557 6.271.925.061.053.045.149-.028.185a7.887 7.887 0 0 0-.802.49.122.122 0 0 1-.153-.012C12.795 1.168 10.771 1.03 9.57.853v.001zM31.419.854l.956-.158a.054.054 0 0 0 .014-.103c-2.222-.944-4.565-.557-6.272.925-.061.053-.045.149.028.185.307.157.649.384.802.49a.122.122 0 0 0 .153-.012c1.094-1.013 3.118-1.151 4.319-1.328v.001zM20.552 1.668c-1.536 0-2.395-.377-3.907-.399-.051-.001-.076-.06-.039-.093C17.684.222 19.762 0 20.484 0c.607 0 2.618.176 3.789 1.169.04.034.013.095-.04.094-1.515-.024-1.526.404-3.683.404l.001.001zM1.506 9.458H.571a.231.231 0 0 1-.221-.309c.103-.275.237-.667.254-.894.017-.216.009-.396.002-.558-.014-.328-.025-.588.173-.951.163-.298.342-.537.525-.78.229-.305.464-.617.677-1.063.162-.34.267-.824.379-1.342.103-.477.213-.983.379-1.432.347-.934.47-1.267 1.319-1.406.829-.136 1.777.126 2.738.393.551.153 1.107.307 1.649.387.341.051.687.095 1.031.139 1.441.184 2.847.364 3.729 1.021.104.078.104.226.025.329-.33.429-.605 1.193-.658 2.112-.038.66.123 1.482.42 2.498.171.586-.133 1.22-.334 1.641l-.038.079a.24.24 0 0 1-.216.136H5.21c-.127 0-.23-.1-.236-.223-.051-1.052-.468-2.15-1.544-2.15s-1.558 1.31-1.689 2.171a.238.238 0 0 1-.236.202v-.001zm1.819-3.662v-.001c.395.412 1.84.6 2.625-.203.917-.938.978-2.912.058-3.442-.365-.21-.998-.263-.998-.263-.919 0-1.108.726-1.308 1.494-.051.195-.102.393-.166.583a4.106 4.106 0 0 1-.217.496c-.228.466-.431.881.007 1.336zm4.631 1.069c.881.622 2.297.458 2.915-.023.812-.633.993-2.752.304-3.37-.743-.667-1.551-.74-2.423-.336-.986.457-1.41 3.297-.796 3.73zM39.483 9.458h.934c.164 0 .276-.16.221-.309-.103-.275-.237-.667-.254-.894a4.167 4.167 0 0 1-.002-.558c.014-.328.025-.588-.173-.951a6.234 6.234 0 0 0-.525-.78c-.229-.305-.464-.617-.677-1.063-.162-.34-.267-.824-.379-1.342-.103-.477-.213-.983-.379-1.432-.347-.934-.47-1.267-1.319-1.406-.829-.136-1.777.126-2.738.393-.551.153-1.108.307-1.649.387-.341.051-.687.095-1.031.139-1.441.184-2.847.364-3.729 1.021-.104.078-.104.226-.025.329.33.429.605 1.193.658 2.112.038.66-.123 1.482-.42 2.498-.155.532.08 1.102.276 1.517a.602.602 0 0 0 .544.338h6.963c.128 0 .23-.1.236-.223.051-1.052.468-2.15 1.544-2.15s1.559 1.31 1.689 2.171a.238.238 0 0 0 .236.202v-.001zm-1.818-3.662v-.001c-.395.412-1.84.6-2.625-.203-.916-.938-.978-2.912-.057-3.442.365-.21.998-.263.998-.263.919 0 1.108.726 1.308 1.494.051.195.102.393.166.583.059.174.139.338.217.496.228.466.431.881-.007 1.336zm-4.631 1.069c-.881.622-2.297.458-2.915-.023-.812-.633-.993-2.752-.304-3.37.743-.667 1.551-.74 2.423-.336.986.457 1.41 3.297.796 3.73h-.001zM18.18 9.457v.001a.247.247 0 0 0 .231-.164c.169-.469.758-1.786 2.064-1.786s1.895 1.317 2.063 1.786a.246.246 0 0 0 .231.164h4.698a.116.116 0 0 0 .098-.179c-.598-.919-.452-1.524-.258-2.329.136-.564.295-1.226.239-2.162-.085-1.406-.912-2.291-2.458-2.616-.803-.168-1.841-.01-2.815.139-.619.095-1.212.185-1.703.185-.659 0-1.338-.109-2.002-.215-.959-.154-1.884-.303-2.661-.109-1.498.373-2.241 1.149-2.516 2.698-.103.804.068 1.416.226 1.985.214.768.405 1.456-.127 2.432a.116.116 0 0 0 .103.171h4.586zm-.671-2.195c-.918.522-2.113.514-2.576-.517-.526-1.172-.015-2.829 1.466-3.239 1.551-.429 3.051-.22 2.995.911-.042.84-.811 2.235-1.885 2.845zm8.58-.517c-.463 1.032-1.658 1.039-2.576.517-1.074-.61-1.843-2.005-1.885-2.845-.056-1.13 1.444-1.34 2.995-.911 1.48.41 1.991 2.067 1.466 3.239z"/>
    </symbol>
    <symbol id="ship-logo" viewBox="0 0 32 32">
      <path fill="#fff" style="fill:var(--color1, #fff)" d="M16.14.001C7.193-.073-.073 7.193.001 16.14c.075 8.688 7.173 15.787 15.859 15.859 8.947.077 16.216-7.192 16.139-16.139C31.927 7.175 24.828.076 16.14.001zm-4.784 7.963a7.632 7.632 0 0 1 1.637 4.733 7.61 7.61 0 0 1-1.248 4.189H6.198l5.158-8.922zm16.912 9.747v1.152c0 .075-.04.139-.109.168-.376.16-1.616.736-2.133 1.453-1.331 1.853-2.347 4.765-4.619 4.765h-9.48c-3.357 0-6.165-2.664-6.163-6.213 0-.088.075-.16.163-.16h4.493c.155 0 .277.125.277.277v.867c0 .461.373.835.835.835h3.408v-1.984h-2.328a9.914 9.914 0 0 0 2.136-6.168 9.93 9.93 0 0 0-2.629-6.744c.987.115 1.931.312 2.821.573V5.98a1.037 1.037 0 1 1 2.074 0v1.331c3.181 1.485 5.264 3.949 5.264 6.736 0 1.635-.715 3.157-1.949 4.437a1.264 1.264 0 0 1-.909.384h-2.405v1.981h3.019c.651 0 1.819-1.235 2.373-1.979 0 0 .024-.037.088-.056s5.544-1.277 5.544-1.277a.181.181 0 0 1 .229.173v.002z"/>
    </symbol>
    <symbol id="metamask" viewBox="0 0 32 32">
      <path fill="#f5841f" style="fill:var(--color3, #f5841f)" d="m26.156 15.984 1.078-1.266-.469-.344.75-.687-.578-.437.75-.563-.484-.375.781-3.813-1.187-3.531zm.641-11.015-7.625 2.828h-6.359L5.188 4.969 4 8.5l.797 3.813-.5.375.766.563-.578.437.75.687-.469.344 1.078 1.266-1.641 5.063 1.516 5.172 5.328-1.469 1.031.844 2.109 1.437h3.609l2.109-1.437 1.031-.844 5.344 1.469 1.531-5.172-1.656-5.063z"/>
      <path fill="#e27625" style="fill:var(--color4, #e27625)" d="m26.797 4.969-9.359 6.891 1.734-4.063 7.625-2.828zM5.188 4.969l9.281 6.953-1.656-4.125-7.625-2.828zM23.437 20.953l-2.5 3.781 5.344 1.469 1.531-5.172-4.375-.078zM4.203 21.031l1.516 5.172 5.328-1.469-2.484-3.781-4.359.078z"/>
      <path fill="#e27625" style="fill:var(--color4, #e27625)" d="m10.766 14.547-1.484 2.234 5.281.234-.172-5.656-3.625 3.188zM21.234 14.547l-3.687-3.25-.109 5.719 5.281-.234-1.484-2.234zM11.047 24.734l3.203-1.531-2.766-2.125-.438 3.656zM17.75 23.203l3.187 1.531-.437-3.656-2.75 2.125z"/>
      <path fill="#d7c1b3" style="fill:var(--color5, #d7c1b3)" d="m20.937 24.734-3.187-1.531.266 2.063-.031.875 2.953-1.406zM11.047 24.734l2.969 1.406-.016-.875.25-2.063-3.203 1.531z"/>
      <path fill="#2f343b" style="fill:var(--color6, #2f343b)" d="m14.063 19.703-2.641-.766 1.875-.859.766 1.625zM17.922 19.703l.781-1.625 1.875.859-2.656.766z"/>
      <path fill="#cc6228" style="fill:var(--color7, #cc6228)" d="m11.047 24.734.469-3.781-2.953.078 2.484 3.703zM20.484 20.953l.453 3.781 2.5-3.703-2.953-.078zM22.719 16.781l-5.281.234.484 2.687.781-1.625 1.875.859 2.141-2.156zM11.422 18.937l1.875-.859.766 1.625.5-2.687-5.281-.234 2.141 2.156z"/>
      <path fill="#e27625" style="fill:var(--color4, #e27625)" d="m9.281 16.781 2.203 4.297-.063-2.141-2.141-2.156zM20.578 18.937l-.078 2.141 2.219-4.297-2.141 2.156zM14.563 17.016l-.5 2.687.625 3.188.141-4.188-.266-1.687zM17.437 17.016l-.266 1.672.125 4.203.625-3.188-.484-2.687z"/>
      <path fill="#f5841f" style="fill:var(--color3, #f5841f)" d="m17.922 19.703-.625 3.188.453.312 2.75-2.125.078-2.141-2.656.766zM11.422 18.937l.063 2.141 2.766 2.125.437-.312-.625-3.188-2.641-.766z"/>
      <path fill="#c0ad9e" style="fill:var(--color8, #c0ad9e)" d="m17.984 26.141.031-.875-.25-.203h-3.547l-.219.203.016.875-2.969-1.406 1.031.844 2.109 1.453h3.609l2.109-1.453 1.031-.844-2.953 1.406z"/>
      <path fill="#2f343b" style="fill:var(--color6, #2f343b)" d="m17.75 23.203-.453-.312h-2.609l-.437.312-.25 2.063.219-.203h3.547l.25.203-.266-2.063z"/>
      <path fill="#763e1a" style="fill:var(--color9, #763e1a)" d="m27.203 12.313.781-3.813-1.187-3.531-9.047 6.656 3.484 2.922 4.922 1.437 1.078-1.266-.469-.344.75-.672-.578-.453.75-.563-.484-.375zM4 8.5l.797 3.813-.5.375.75.578-.578.437.75.672-.469.344 1.094 1.266 4.922-1.437 3.484-2.922L5.187 4.97 3.999 8.501z"/>
      <path fill="#f5841f" style="fill:var(--color3, #f5841f)" d="m26.156 15.984-4.922-1.437 1.484 2.234-2.219 4.297 2.937-.047h4.375l-1.656-5.047zM10.766 14.547l-4.922 1.437-1.641 5.047h4.359l2.922.047-2.203-4.297 1.484-2.234zM17.437 17.016l.313-5.391 1.422-3.828h-6.359l1.438 3.828.313 5.391.125 1.687v4.188h2.609l.016-4.188.125-1.687z"/>
    </symbol>
    <symbol id="up-left-arrow-1" viewBox="0 0 32 32">
      <path fill="#fff" style="fill:var(--color1, #fff)" d="M8.552 6h17.333v17.333h-5.333v-8.229L9.885 25.771 6.114 22l10.667-10.667H8.552V6z"/>
    </symbol>
  </defs>
</svg>
